name C:\Users\u0101727\Documents\MyRepositories\predictivesimulations\OpenSimModel\subject1\EMG\EMG_gait_23.mot
datacolumns 25
datarows 19
range 0.00100000 0.01900000
endheader
time	HamL_r	TA_r	PerL_r	GL_r	HamM_r	Sol_r	VL_r	VM_r	PerB_l	TA_l	PerL_l	GL_l	GM_l	Sol_l	VL_l	VM_l	AddL_l	RF_l	TFL_l	GluMed_l	HamL_l	HamM_l	GluMed_r	RF_r	
          0.00100000	          0.00100000	          0.00100000	          0.00100000	          0.00100000	          0.00100000	          0.01619096	          0.00100000	          0.00100000	          0.00572020	          0.02731355	          0.01177226	          0.00201347	          0.00100000	          0.00100000	          0.00156513	          0.00167900	          0.00100000	          0.00100000	          0.00286525	          0.00100000	          0.00203734	          0.00100000	          0.02250419	          0.00100000	
          0.00200000	          0.00100000	          0.00100833	          0.00100000	          0.00100000	          0.00100000	          0.01696426	          0.00100000	          0.00100000	          0.00600259	          0.02836157	          0.01222197	          0.00226192	          0.00100000	          0.00115929	          0.00165743	          0.00178083	          0.00100000	          0.00100000	          0.00321977	          0.00100000	          0.00214869	          0.00100000	          0.02344557	          0.00100000	
          0.00300000	          0.00108997	          0.00115449	          0.00100000	          0.00100000	          0.00112764	          0.01775552	          0.00147231	          0.00100000	          0.00628221	          0.02941610	          0.01266769	          0.00251121	          0.00100000	          0.00146307	          0.00175100	          0.00188280	          0.00100000	          0.00100000	          0.00358065	          0.00100000	          0.00226074	          0.00100000	          0.02439589	          0.00100000	
          0.00400000	          0.00126289	          0.00129912	          0.00100000	          0.00100000	          0.00132034	          0.01856141	          0.00204756	          0.00100000	          0.00655751	          0.03047215	          0.01310722	          0.00276055	          0.00185300	          0.00176663	          0.00184523	          0.00198436	          0.00100000	          0.00100000	          0.00394720	          0.00100000	          0.00237292	          0.00100000	          0.02535051	          0.00100000	
          0.00500000	          0.00143553	          0.00144161	          0.00100000	          0.00100000	          0.00151077	          0.01937927	          0.00260850	          0.00100000	          0.00682697	          0.03152463	          0.01353833	          0.00300918	          0.00271195	          0.00206920	          0.00193966	          0.00208506	          0.00100000	          0.00100000	          0.00431871	          0.00100000	          0.00248479	          0.00100000	          0.02630479	          0.00100000	
          0.00600000	          0.00160748	          0.00158139	          0.00100000	          0.00100000	          0.00169834	          0.02020696	          0.00315298	          0.00100000	          0.00708907	          0.03256841	          0.01395873	          0.00325642	          0.00357320	          0.00237008	          0.00203396	          0.00218444	          0.00100000	          0.00100000	          0.00469450	          0.00113689	          0.00259600	          0.00100000	          0.02725431	          0.00100000	
          0.00700000	          0.00177835	          0.00171795	          0.00100000	          0.00100000	          0.00188253	          0.02104266	          0.00367914	          0.00100000	          0.00734232	          0.03359855	          0.01436612	          0.00350161	          0.00443534	          0.00266863	          0.00212786	          0.00228211	          0.00100000	          0.00100000	          0.00507393	          0.00148329	          0.00270625	          0.00100000	          0.02819495	          0.00100000	
          0.00800000	          0.00194779	          0.00185082	          0.00100000	          0.00100000	          0.00206294	          0.02188465	          0.00418544	          0.00108871	          0.00758526	          0.03461040	          0.01475821	          0.00374409	          0.00529705	          0.00296425	          0.00222118	          0.00237766	          0.00127671	          0.00100000	          0.00545637	          0.00182407	          0.00281523	          0.00100000	          0.02912272	          0.00100000	
          0.00900000	          0.00211542	          0.00197963	          0.00100000	          0.00100000	          0.00223918	          0.02273127	          0.00467062	          0.00125942	          0.00781650	          0.03559928	          0.01513273	          0.00398324	          0.00615713	          0.00325638	          0.00231373	          0.00247076	          0.00156068	          0.00100000	          0.00584120	          0.00215885	          0.00292263	          0.00100000	          0.03003361	          0.00100000	
          0.01000000	          0.00228090	          0.00210410	          0.00100000	          0.00100000	          0.00241091	          0.02358092	          0.00513379	          0.00142566	          0.00803471	          0.03656046	          0.01548747	          0.00421841	          0.00701450	          0.00354449	          0.00240536	          0.00256116	          0.00183493	          0.00100000	          0.00622775	          0.00248729	          0.00302814	          0.00100000	          0.03092366	          0.00100000	
          0.01100000	          0.00244390	          0.00222399	          0.00100000	          0.00105085	          0.00257780	          0.02443201	          0.00557439	          0.00158723	          0.00823875	          0.03748940	          0.01582030	          0.00444898	          0.00786813	          0.00382806	          0.00249593	          0.00264872	          0.00209919	          0.00100000	          0.00661533	          0.00280912	          0.00313149	          0.00100000	          0.03178902	          0.00100000	
          0.01200000	          0.00260410	          0.00233908	          0.00100000	          0.00119095	          0.00273954	          0.02528288	          0.00599214	          0.00174397	          0.00842765	          0.03838220	          0.01612928	          0.00467438	          0.00871703	          0.00410654	          0.00258529	          0.00273336	          0.00235328	          0.00100000	          0.00700320	          0.00312403	          0.00323242	          0.00100000	          0.03262617	          0.00126100	
          0.01300000	          0.00276116	          0.00244923	          0.00100000	          0.00132722	          0.00289584	          0.02613177	          0.00638712	          0.00189571	          0.00860065	          0.03923550	          0.01641289	          0.00489408	          0.00956015	          0.00437939	          0.00267333	          0.00281506	          0.00259716	          0.00100000	          0.00739058	          0.00343176	          0.00333077	          0.00100000	          0.03343193	          0.00163660	
          0.01400000	          0.00291477	          0.00255441	          0.00100000	          0.00145970	          0.00304653	          0.02697701	          0.00675971	          0.00204227	          0.00875735	          0.04004616	          0.01667018	          0.00510758	          0.01039640	          0.00464611	          0.00275998	          0.00289377	          0.00283090	          0.00103493	          0.00777669	          0.00373204	          0.00342638	          0.00118938	          0.03420369	          0.00199135	
          0.01500000	          0.00306463	          0.00265467	          0.00100000	          0.00158843	          0.00319154	          0.02781703	          0.00711055	          0.00218350	          0.00889763	          0.04081093	          0.01690065	          0.00531438	          0.01122462	          0.00490635	          0.00284521	          0.00296950	          0.00305458	          0.00135024	          0.00816073	          0.00402463	          0.00351915	          0.00144815	          0.03493941	          0.00232566	
          0.01600000	          0.00321050	          0.00275010	          0.00100000	          0.00171342	          0.00333090	          0.02865032	          0.00744044	          0.00231926	          0.00902164	          0.04152656	          0.01710403	          0.00551403	          0.01204360	          0.00515998	          0.00292898	          0.00304222	          0.00326828	          0.00164820	          0.00854193	          0.00430932	          0.00360906	          0.00169660	          0.03563767	          0.00264004	
          0.01700000	          0.00335210	          0.00284076	          0.00315014	          0.00183472	          0.00346473	          0.02947554	          0.00775018	          0.00244947	          0.00912970	          0.04219026	          0.01728023	          0.00570610	          0.01285214	          0.00540698	          0.00301127	          0.00311193	          0.00347210	          0.00192924	          0.00891949	          0.00458592	          0.00369609	          0.00193480	          0.03629766	          0.00293505	
          0.01800000	          0.00348920	          0.00292673	          0.00869694	          0.00195236	          0.00359321	          0.03029189	          0.00804060	          0.00257411	          0.00922219	          0.04280022	          0.01742942	          0.00589017	          0.01364911	          0.00564738	          0.00309205	          0.00317863	          0.00366612	          0.00219380	          0.00929258	          0.00485428	          0.00378025	          0.00216278	          0.03691895	          0.00321129	
          0.01900000	          0.00362161	          0.00300808	          0.01393111	          0.00206641	          0.00371655	          0.03109924	          0.00831247	          0.00269322	          0.00929953	          0.04335566	          0.01755197	          0.00606592	          0.01443345	          0.00588120	          0.00317127	          0.00324242	          0.00385048	          0.00244230	          0.00966031	          0.00511430	          0.00386155	          0.00238057	          0.03750148	          0.00346938	
